<mxfile host="app.diagrams.net" agent="Mozilla/5.0 (Windows NT 10.0; Win64; x64) AppleWebKit/537.36 (KHTML, like Gecko) Chrome/128.0.0.0 Safari/537.36 OPR/114.0.0.0" version="24.9.1">
  <diagram name="Página-1" id="_GtWQ-V9oyeK9FRqAT0I">
    <mxGraphModel dx="1161" dy="695" grid="1" gridSize="10" guides="1" tooltips="1" connect="1" arrows="1" fold="1" page="1" pageScale="1" pageWidth="827" pageHeight="1169" math="0" shadow="0">
      <root>
        <mxCell id="0" />
        <mxCell id="1" parent="0" />
        <mxCell id="Mmb-AnTqr0RrHsYs3rZv-30" value="Projeto Livro Caixa&lt;div&gt;UML - DCU (Diagrama de casos de uso)&lt;/div&gt;" style="rounded=0;whiteSpace=wrap;html=1;" vertex="1" parent="1">
          <mxGeometry x="294" y="50" width="240" height="60" as="geometry" />
        </mxCell>
        <mxCell id="Mmb-AnTqr0RrHsYs3rZv-47" style="edgeStyle=orthogonalEdgeStyle;rounded=0;orthogonalLoop=1;jettySize=auto;html=1;exitX=0.5;exitY=0.5;exitDx=0;exitDy=0;exitPerimeter=0;entryX=0;entryY=0.5;entryDx=0;entryDy=0;" edge="1" parent="1" source="Mmb-AnTqr0RrHsYs3rZv-31" target="Mmb-AnTqr0RrHsYs3rZv-43">
          <mxGeometry relative="1" as="geometry" />
        </mxCell>
        <mxCell id="Mmb-AnTqr0RrHsYs3rZv-31" value="usuario" style="shape=umlActor;verticalLabelPosition=bottom;verticalAlign=top;html=1;" vertex="1" parent="1">
          <mxGeometry x="140" y="350" width="30" height="60" as="geometry" />
        </mxCell>
        <mxCell id="Mmb-AnTqr0RrHsYs3rZv-39" value="Preencher dados obrigatorios" style="ellipse;whiteSpace=wrap;html=1;align=center;" vertex="1" parent="1">
          <mxGeometry x="534" y="190" width="110" height="60" as="geometry" />
        </mxCell>
        <mxCell id="Mmb-AnTqr0RrHsYs3rZv-48" style="rounded=0;orthogonalLoop=1;jettySize=auto;html=1;entryX=0.5;entryY=0;entryDx=0;entryDy=0;dashed=1;endArrow=block;endFill=1;exitX=0.5;exitY=1;exitDx=0;exitDy=0;" edge="1" parent="1" source="Mmb-AnTqr0RrHsYs3rZv-51" target="Mmb-AnTqr0RrHsYs3rZv-43">
          <mxGeometry relative="1" as="geometry">
            <mxPoint x="370" y="250" as="sourcePoint" />
          </mxGeometry>
        </mxCell>
        <mxCell id="Mmb-AnTqr0RrHsYs3rZv-58" value="&amp;lt;&amp;lt;extend&amp;gt;&amp;gt;" style="edgeLabel;html=1;align=center;verticalAlign=middle;resizable=0;points=[];" vertex="1" connectable="0" parent="Mmb-AnTqr0RrHsYs3rZv-48">
          <mxGeometry x="0.2049" relative="1" as="geometry">
            <mxPoint y="-1" as="offset" />
          </mxGeometry>
        </mxCell>
        <mxCell id="Mmb-AnTqr0RrHsYs3rZv-41" value="Registrar Lançamentos" style="ellipse;whiteSpace=wrap;html=1;align=center;" vertex="1" parent="1">
          <mxGeometry x="424" y="280" width="110" height="60" as="geometry" />
        </mxCell>
        <mxCell id="Mmb-AnTqr0RrHsYs3rZv-42" value="Enviar" style="ellipse;whiteSpace=wrap;html=1;align=center;" vertex="1" parent="1">
          <mxGeometry x="630" y="280" width="110" height="60" as="geometry" />
        </mxCell>
        <mxCell id="Mmb-AnTqr0RrHsYs3rZv-43" value="Listar lançamentos por dia&amp;nbsp;" style="ellipse;whiteSpace=wrap;html=1;align=center;" vertex="1" parent="1">
          <mxGeometry x="250" y="350" width="110" height="60" as="geometry" />
        </mxCell>
        <mxCell id="Mmb-AnTqr0RrHsYs3rZv-44" value="Filtrar por data" style="ellipse;whiteSpace=wrap;html=1;align=center;" vertex="1" parent="1">
          <mxGeometry x="600" y="370" width="110" height="60" as="geometry" />
        </mxCell>
        <mxCell id="Mmb-AnTqr0RrHsYs3rZv-45" value="Excluir lançamento" style="ellipse;whiteSpace=wrap;html=1;align=center;" vertex="1" parent="1">
          <mxGeometry x="440" y="490" width="110" height="60" as="geometry" />
        </mxCell>
        <mxCell id="Mmb-AnTqr0RrHsYs3rZv-46" value="Editar lançamento" style="ellipse;whiteSpace=wrap;html=1;align=center;" vertex="1" parent="1">
          <mxGeometry x="550" y="440" width="110" height="60" as="geometry" />
        </mxCell>
        <mxCell id="Mmb-AnTqr0RrHsYs3rZv-50" style="rounded=0;orthogonalLoop=1;jettySize=auto;html=1;entryX=1;entryY=0;entryDx=0;entryDy=0;dashed=1;endArrow=block;endFill=1;exitX=0;exitY=0.5;exitDx=0;exitDy=0;" edge="1" parent="1" source="Mmb-AnTqr0RrHsYs3rZv-41" target="Mmb-AnTqr0RrHsYs3rZv-43">
          <mxGeometry relative="1" as="geometry">
            <mxPoint x="504" y="350" as="sourcePoint" />
            <mxPoint x="414" y="410" as="targetPoint" />
          </mxGeometry>
        </mxCell>
        <mxCell id="Mmb-AnTqr0RrHsYs3rZv-65" value="&amp;lt;extend&amp;gt;" style="edgeLabel;html=1;align=center;verticalAlign=middle;resizable=0;points=[];" vertex="1" connectable="0" parent="Mmb-AnTqr0RrHsYs3rZv-50">
          <mxGeometry x="-0.0675" relative="1" as="geometry">
            <mxPoint as="offset" />
          </mxGeometry>
        </mxCell>
        <mxCell id="Mmb-AnTqr0RrHsYs3rZv-51" value="Cadastrar usuario" style="ellipse;whiteSpace=wrap;html=1;align=center;" vertex="1" parent="1">
          <mxGeometry x="330" y="190" width="110" height="60" as="geometry" />
        </mxCell>
        <mxCell id="Mmb-AnTqr0RrHsYs3rZv-52" style="rounded=0;orthogonalLoop=1;jettySize=auto;html=1;entryX=0.5;entryY=1;entryDx=0;entryDy=0;dashed=1;endArrow=block;endFill=1;exitX=1;exitY=0.5;exitDx=0;exitDy=0;" edge="1" parent="1" source="Mmb-AnTqr0RrHsYs3rZv-41" target="Mmb-AnTqr0RrHsYs3rZv-39">
          <mxGeometry relative="1" as="geometry">
            <mxPoint x="434" y="310" as="sourcePoint" />
            <mxPoint x="354" y="369" as="targetPoint" />
          </mxGeometry>
        </mxCell>
        <mxCell id="Mmb-AnTqr0RrHsYs3rZv-53" style="rounded=0;orthogonalLoop=1;jettySize=auto;html=1;entryX=0;entryY=0.5;entryDx=0;entryDy=0;dashed=1;endArrow=block;endFill=1;exitX=1;exitY=0.5;exitDx=0;exitDy=0;" edge="1" parent="1" source="Mmb-AnTqr0RrHsYs3rZv-51" target="Mmb-AnTqr0RrHsYs3rZv-39">
          <mxGeometry relative="1" as="geometry">
            <mxPoint x="518" y="284" as="sourcePoint" />
            <mxPoint x="585" y="240" as="targetPoint" />
          </mxGeometry>
        </mxCell>
        <mxCell id="Mmb-AnTqr0RrHsYs3rZv-59" value="&amp;lt;&amp;lt;include&amp;gt;&amp;gt;" style="edgeLabel;html=1;align=center;verticalAlign=middle;resizable=0;points=[];" vertex="1" connectable="0" parent="Mmb-AnTqr0RrHsYs3rZv-53">
          <mxGeometry x="0.148" y="-2" relative="1" as="geometry">
            <mxPoint x="-10" y="-2" as="offset" />
          </mxGeometry>
        </mxCell>
        <mxCell id="Mmb-AnTqr0RrHsYs3rZv-54" style="rounded=0;orthogonalLoop=1;jettySize=auto;html=1;entryX=0.5;entryY=0;entryDx=0;entryDy=0;dashed=1;endArrow=block;endFill=1;exitX=1;exitY=1;exitDx=0;exitDy=0;" edge="1" parent="1" source="Mmb-AnTqr0RrHsYs3rZv-39" target="Mmb-AnTqr0RrHsYs3rZv-42">
          <mxGeometry relative="1" as="geometry">
            <mxPoint x="518" y="284" as="sourcePoint" />
            <mxPoint x="585" y="240" as="targetPoint" />
          </mxGeometry>
        </mxCell>
        <mxCell id="Mmb-AnTqr0RrHsYs3rZv-61" value="&amp;lt;&amp;lt;include&amp;gt;&amp;gt;" style="edgeLabel;html=1;align=center;verticalAlign=middle;resizable=0;points=[];" vertex="1" connectable="0" parent="Mmb-AnTqr0RrHsYs3rZv-54">
          <mxGeometry x="-0.0964" y="4" relative="1" as="geometry">
            <mxPoint y="1" as="offset" />
          </mxGeometry>
        </mxCell>
        <mxCell id="Mmb-AnTqr0RrHsYs3rZv-55" style="rounded=0;orthogonalLoop=1;jettySize=auto;html=1;entryX=1;entryY=0.5;entryDx=0;entryDy=0;dashed=1;endArrow=block;endFill=1;exitX=0;exitY=0.5;exitDx=0;exitDy=0;" edge="1" parent="1" source="Mmb-AnTqr0RrHsYs3rZv-44" target="Mmb-AnTqr0RrHsYs3rZv-43">
          <mxGeometry relative="1" as="geometry">
            <mxPoint x="470" y="420" as="sourcePoint" />
            <mxPoint x="390" y="479" as="targetPoint" />
          </mxGeometry>
        </mxCell>
        <mxCell id="Mmb-AnTqr0RrHsYs3rZv-62" value="&amp;lt;&amp;lt;extend&amp;gt;&amp;gt;" style="edgeLabel;html=1;align=center;verticalAlign=middle;resizable=0;points=[];" vertex="1" connectable="0" parent="Mmb-AnTqr0RrHsYs3rZv-55">
          <mxGeometry x="0.3083" y="-2" relative="1" as="geometry">
            <mxPoint as="offset" />
          </mxGeometry>
        </mxCell>
        <mxCell id="Mmb-AnTqr0RrHsYs3rZv-56" style="rounded=0;orthogonalLoop=1;jettySize=auto;html=1;entryX=1;entryY=0.5;entryDx=0;entryDy=0;dashed=1;endArrow=block;endFill=1;exitX=0;exitY=0.5;exitDx=0;exitDy=0;" edge="1" parent="1" source="Mmb-AnTqr0RrHsYs3rZv-46" target="Mmb-AnTqr0RrHsYs3rZv-43">
          <mxGeometry relative="1" as="geometry">
            <mxPoint x="490" y="510" as="sourcePoint" />
            <mxPoint x="360" y="410" as="targetPoint" />
          </mxGeometry>
        </mxCell>
        <mxCell id="Mmb-AnTqr0RrHsYs3rZv-63" value="&amp;lt;&amp;lt;extend&amp;gt;&amp;gt;" style="edgeLabel;html=1;align=center;verticalAlign=middle;resizable=0;points=[];" vertex="1" connectable="0" parent="Mmb-AnTqr0RrHsYs3rZv-56">
          <mxGeometry x="-0.3247" relative="1" as="geometry">
            <mxPoint as="offset" />
          </mxGeometry>
        </mxCell>
        <mxCell id="Mmb-AnTqr0RrHsYs3rZv-57" style="rounded=0;orthogonalLoop=1;jettySize=auto;html=1;dashed=1;endArrow=block;endFill=1;exitX=0.5;exitY=0;exitDx=0;exitDy=0;entryX=1;entryY=0.5;entryDx=0;entryDy=0;" edge="1" parent="1" source="Mmb-AnTqr0RrHsYs3rZv-45" target="Mmb-AnTqr0RrHsYs3rZv-43">
          <mxGeometry relative="1" as="geometry">
            <mxPoint x="476" y="539" as="sourcePoint" />
            <mxPoint x="370" y="380" as="targetPoint" />
          </mxGeometry>
        </mxCell>
        <mxCell id="Mmb-AnTqr0RrHsYs3rZv-64" value="&amp;lt;&amp;lt;extend&amp;gt;&amp;gt;" style="edgeLabel;html=1;align=center;verticalAlign=middle;resizable=0;points=[];" vertex="1" connectable="0" parent="Mmb-AnTqr0RrHsYs3rZv-57">
          <mxGeometry x="-0.3736" y="-1" relative="1" as="geometry">
            <mxPoint as="offset" />
          </mxGeometry>
        </mxCell>
        <mxCell id="Mmb-AnTqr0RrHsYs3rZv-60" value="&amp;lt;&amp;lt;include&amp;gt;&amp;gt;" style="edgeLabel;html=1;align=center;verticalAlign=middle;resizable=0;points=[];" vertex="1" connectable="0" parent="1">
          <mxGeometry x="560.1666666666667" y="280" as="geometry" />
        </mxCell>
      </root>
    </mxGraphModel>
  </diagram>
</mxfile>
